<?xml version="1.0" encoding="iso-8859-1"?>
<!-- Uploaded to: SVG Repo, www.svgrepo.com, Generator: SVG Repo Mixer Tools -->
<svg height="800px" width="800px" version="1.1" id="Layer_1" xmlns="http://www.w3.org/2000/svg" xmlns:xlink="http://www.w3.org/1999/xlink"
	 viewBox="0 0 392.598 392.598" xml:space="preserve">
<path id="SVGCleanerId_0" style="fill:#FFFFFF;" d="M196.299,192.453c-49.131,0-89.083,39.952-89.083,89.083
	s39.952,89.212,89.083,89.212s89.083-40.016,89.083-89.147S245.43,192.453,196.299,192.453z"/>
<g>
	<path id="SVGCleanerId_0_1_" style="fill:#FFFFFF;" d="M196.299,192.453c-49.131,0-89.083,39.952-89.083,89.083
		s39.952,89.212,89.083,89.212s89.083-40.016,89.083-89.147S245.43,192.453,196.299,192.453z"/>
</g>
<path style="fill:#FFC10D;" d="M196.299,348.897c-37.107,0-67.297-30.19-67.297-67.297s30.19-67.297,67.297-67.297
	s67.297,30.19,67.297,67.297S233.406,348.897,196.299,348.897z"/>
<path style="fill:#194F82;" d="M240.452,179.911l44.541-44.541c2.004-2.004,3.168-4.784,3.168-7.758V38.141
	C288.162,17.131,271.03,0,250.02,0H142.642c-21.01,0-38.141,17.131-38.141,38.141v89.471c0,2.844,1.164,5.624,3.168,7.758
	c0,0,30.384,30.384,44.541,44.541c-39.24,17.067-66.844,56.242-66.844,101.754c0,61.22,49.778,110.933,110.933,110.933
	s110.933-49.778,110.933-110.933C307.232,236.154,279.693,196.978,240.452,179.911z M234.182,21.786h15.774
	c9.051,0,16.356,7.37,16.356,16.356v85.01l-32.129,32.129L234.182,21.786L234.182,21.786z M180.202,21.786h32.129v150.238
	c-5.236-0.776-10.602-1.293-16.097-1.293s-10.796,0.517-16.097,1.293V21.786H180.202z M126.287,123.152v-85.01
	c0-9.051,7.37-16.356,16.356-16.356h15.774v133.43C143.03,139.96,126.287,123.152,126.287,123.152z M196.299,370.747
	c-49.131,0-89.083-39.952-89.083-89.083s39.952-89.212,89.083-89.212s89.083,39.952,89.083,89.147S245.43,370.747,196.299,370.747z"
	/>
<path style="fill:#FFFFFF;" d="M158.416,21.786h-15.774c-9.051,0-16.356,7.37-16.356,16.356v85.01c0,0,16.743,16.743,32.129,32.129
	V21.786z"/>
<path style="fill:#56ACE0;" d="M212.396,172.024V21.786h-32.129v150.238c5.236-0.776,10.602-1.293,16.097-1.293
	C201.794,170.667,207.095,171.248,212.396,172.024z"/>
<path style="fill:#FFFFFF;" d="M266.311,38.141c0-9.051-7.37-16.356-16.356-16.356h-15.774v133.495l32.129-32.129V38.141
	L266.311,38.141z"/>
<path style="fill:#194F82;" d="M219.636,314.505h-9.762v-79.774c0.129-8.275-10.602-13.511-16.937-7.046l-27.022,27.087
	c-3.879,3.879-3.879,10.15,0,13.964c3.879,3.814,10.15,3.879,13.964,0l10.214-10.214v55.919h-9.762
	c-5.495,0-9.891,4.396-9.891,9.891c0,5.495,4.396,9.891,9.891,9.891h39.24c5.495,0,9.891-4.396,9.891-9.891
	C229.463,318.836,225.131,314.505,219.636,314.505z"/>
</svg>
